<svg width="179" height="29" viewBox="0 0 179 29" fill="none" xmlns="http://www.w3.org/2000/svg">
<path d="M6.344 6.568V22.184H39.24C40.6907 22.184 41.8853 21.928 42.824 21.416C43.7627 20.8613 44.488 20.2 45 19.432C45.5547 18.664 45.9173 17.832 46.088 16.936C46.3013 15.9973 46.408 15.144 46.408 14.376C46.408 13.608 46.3013 12.776 46.088 11.88C45.9173 10.9413 45.5547 10.088 45 9.32C44.488 8.552 43.7627 7.912 42.824 7.4C41.8853 6.84533 40.6907 6.568 39.24 6.568H6.344ZM52.36 14.376C52.36 15.9547 52.104 17.5547 51.592 19.176C51.08 20.7973 50.3333 22.2693 49.352 23.592C48.4133 24.9147 47.2613 26.024 45.896 26.92C44.5307 27.7733 42.9733 28.2427 41.224 28.328H3.272C2.41867 28.328 1.69333 28.0293 1.096 27.432C0.498667 26.8347 0.2 26.1093 0.2 25.256V3.496C0.2 2.64266 0.498667 1.91733 1.096 1.32C1.69333 0.722666 2.41867 0.424 3.272 0.424H40.584C42.4187 0.424 44.0613 0.850666 45.512 1.704C46.9627 2.55733 48.2 3.66667 49.224 5.032C50.248 6.35467 51.016 7.848 51.528 9.512C52.0827 11.1333 52.36 12.7547 52.36 14.376ZM71.3705 6.568V9.704C71.3705 10.1307 71.5412 10.5147 71.8825 10.856C72.2665 11.1547 72.7572 11.304 73.3545 11.304H107.019C108.213 11.304 109.323 11.5387 110.347 12.008C111.413 12.4347 112.331 13.032 113.099 13.8C113.867 14.568 114.464 15.4853 114.891 16.552C115.36 17.576 115.595 18.6853 115.595 19.88C115.595 21.0747 115.36 22.184 114.891 23.208C114.464 24.232 113.867 25.128 113.099 25.896C112.331 26.664 111.413 27.2613 110.347 27.688C109.323 28.1147 108.213 28.328 107.019 28.328H68.2345C67.3812 28.328 66.6558 28.0293 66.0585 27.432C65.4612 26.8347 65.1625 26.1093 65.1625 25.256C65.1625 24.4027 65.4612 23.6773 66.0585 23.08C66.6558 22.4827 67.3812 22.184 68.2345 22.184H107.339C107.979 22.184 108.533 21.9707 109.003 21.544C109.472 21.0747 109.707 20.52 109.707 19.88C109.707 19.1973 109.472 18.6213 109.003 18.152C108.533 17.6827 107.979 17.448 107.339 17.448H73.0345C72.0958 17.448 71.1572 17.256 70.2185 16.872C69.2798 16.4453 68.4478 15.8693 67.7225 15.144C66.9972 14.4187 66.3998 13.544 65.9305 12.52C65.4612 11.496 65.2265 10.344 65.2265 9.064V3.304C65.2265 2.152 65.5465 1.384 66.1865 1C66.8692 0.616 67.9145 0.424 69.3225 0.424H110.603C111.456 0.424 112.181 0.722666 112.779 1.32C113.376 1.91733 113.675 2.64266 113.675 3.496C113.675 4.34933 113.376 5.07467 112.779 5.672C112.181 6.26933 111.456 6.568 110.603 6.568H71.3705ZM135.671 14.376C135.671 13.5227 135.97 12.7973 136.567 12.2C137.164 11.6027 137.89 11.304 138.743 11.304H170.551C171.191 11.304 171.746 11.0693 172.215 10.6C172.684 10.1307 172.919 9.55467 172.919 8.872C172.919 8.232 172.684 7.69867 172.215 7.272C171.746 6.80267 171.191 6.568 170.551 6.568H131.447C130.594 6.568 129.868 6.26933 129.271 5.672C128.674 5.07467 128.375 4.34933 128.375 3.496C128.375 2.64266 128.674 1.91733 129.271 1.32C129.868 0.722666 130.594 0.424 131.447 0.424H170.231C171.426 0.424 172.535 0.637333 173.559 1.064C174.626 1.49067 175.543 2.088 176.311 2.856C177.079 3.624 177.676 4.52 178.103 5.544C178.572 6.568 178.807 7.67733 178.807 8.872C178.807 9.93867 178.615 10.9413 178.231 11.88C177.89 12.8187 177.399 13.6507 176.759 14.376C178.124 15.9973 178.807 17.832 178.807 19.88C178.807 21.0747 178.572 22.184 178.103 23.208C177.676 24.232 177.079 25.128 176.311 25.896C175.543 26.664 174.626 27.2613 173.559 27.688C172.535 28.1147 171.426 28.328 170.231 28.328H131.447C130.594 28.328 129.868 28.0293 129.271 27.432C128.674 26.8347 128.375 26.1093 128.375 25.256C128.375 24.4027 128.674 23.6773 129.271 23.08C129.868 22.4827 130.594 22.184 131.447 22.184H170.551C171.191 22.184 171.746 21.9707 172.215 21.544C172.684 21.0747 172.919 20.52 172.919 19.88C172.919 19.1973 172.684 18.6213 172.215 18.152C171.746 17.6827 171.191 17.448 170.551 17.448H138.743C137.89 17.448 137.164 17.1493 136.567 16.552C135.97 15.9547 135.671 15.2293 135.671 14.376Z" fill="black"/>
</svg>
