<svg width="269" height="42" viewBox="0 0 269 42" fill="none" xmlns="http://www.w3.org/2000/svg">
<path d="M10.016 9.352V32.776H59.36C61.536 32.776 63.328 32.392 64.736 31.624C66.144 30.792 67.232 29.8 68 28.648C68.832 27.496 69.376 26.248 69.632 24.904C69.952 23.496 70.112 22.216 70.112 21.064C70.112 19.912 69.952 18.664 69.632 17.32C69.376 15.912 68.832 14.632 68 13.48C67.232 12.328 66.144 11.368 64.736 10.6C63.328 9.768 61.536 9.352 59.36 9.352H10.016ZM79.04 21.064C79.04 23.432 78.656 25.832 77.888 28.264C77.12 30.696 76 32.904 74.528 34.888C73.12 36.872 71.392 38.536 69.344 39.88C67.296 41.16 64.96 41.864 62.336 41.992H5.408C4.128 41.992 3.04 41.544 2.144 40.648C1.248 39.752 0.8 38.664 0.8 37.384V4.744C0.8 3.464 1.248 2.376 2.144 1.48C3.04 0.583999 4.128 0.136 5.408 0.136H61.376C64.128 0.136 66.592 0.775999 68.768 2.056C70.944 3.336 72.8 5 74.336 7.048C75.872 9.032 77.024 11.272 77.792 13.768C78.624 16.2 79.04 18.632 79.04 21.064ZM107.556 9.352V14.056C107.556 14.696 107.812 15.272 108.324 15.784C108.9 16.232 109.636 16.456 110.532 16.456H161.028C162.82 16.456 164.484 16.808 166.02 17.512C167.62 18.152 168.996 19.048 170.148 20.2C171.3 21.352 172.196 22.728 172.836 24.328C173.54 25.864 173.892 27.528 173.892 29.32C173.892 31.112 173.54 32.776 172.836 34.312C172.196 35.848 171.3 37.192 170.148 38.344C168.996 39.496 167.62 40.392 166.02 41.032C164.484 41.672 162.82 41.992 161.028 41.992H102.852C101.572 41.992 100.484 41.544 99.5877 40.648C98.6917 39.752 98.2437 38.664 98.2437 37.384C98.2437 36.104 98.6917 35.016 99.5877 34.12C100.484 33.224 101.572 32.776 102.852 32.776H161.508C162.468 32.776 163.3 32.456 164.004 31.816C164.708 31.112 165.06 30.28 165.06 29.32C165.06 28.296 164.708 27.432 164.004 26.728C163.3 26.024 162.468 25.672 161.508 25.672H110.052C108.644 25.672 107.236 25.384 105.828 24.808C104.42 24.168 103.172 23.304 102.084 22.216C100.996 21.128 100.1 19.816 99.3957 18.28C98.6917 16.744 98.3397 15.016 98.3397 13.096V4.456C98.3397 2.728 98.8197 1.576 99.7797 1C100.804 0.424 102.372 0.136 104.484 0.136H166.404C167.684 0.136 168.772 0.583999 169.668 1.48C170.564 2.376 171.012 3.464 171.012 4.744C171.012 6.024 170.564 7.112 169.668 8.008C168.772 8.904 167.684 9.352 166.404 9.352H107.556ZM204.006 21.064C204.006 19.784 204.454 18.696 205.35 17.8C206.246 16.904 207.334 16.456 208.614 16.456H256.327C257.287 16.456 258.118 16.104 258.822 15.4C259.527 14.696 259.879 13.832 259.879 12.808C259.879 11.848 259.527 11.048 258.822 10.408C258.118 9.704 257.287 9.352 256.327 9.352H197.67C196.39 9.352 195.302 8.904 194.406 8.008C193.51 7.112 193.062 6.024 193.062 4.744C193.062 3.464 193.51 2.376 194.406 1.48C195.302 0.583999 196.39 0.136 197.67 0.136H255.847C257.639 0.136 259.303 0.455999 260.839 1.096C262.438 1.736 263.814 2.632 264.966 3.784C266.118 4.936 267.014 6.28 267.654 7.816C268.359 9.352 268.711 11.016 268.711 12.808C268.711 14.408 268.423 15.912 267.847 17.32C267.335 18.728 266.599 19.976 265.639 21.064C267.687 23.496 268.711 26.248 268.711 29.32C268.711 31.112 268.359 32.776 267.654 34.312C267.014 35.848 266.118 37.192 264.966 38.344C263.814 39.496 262.438 40.392 260.839 41.032C259.303 41.672 257.639 41.992 255.847 41.992H197.67C196.39 41.992 195.302 41.544 194.406 40.648C193.51 39.752 193.062 38.664 193.062 37.384C193.062 36.104 193.51 35.016 194.406 34.12C195.302 33.224 196.39 32.776 197.67 32.776H256.327C257.287 32.776 258.118 32.456 258.822 31.816C259.527 31.112 259.879 30.28 259.879 29.32C259.879 28.296 259.527 27.432 258.822 26.728C258.118 26.024 257.287 25.672 256.327 25.672H208.614C207.334 25.672 206.246 25.224 205.35 24.328C204.454 23.432 204.006 22.344 204.006 21.064Z" fill="#456FDC"/>
</svg>
