<svg width="305" height="30" viewBox="0 0 305 30" fill="none" xmlns="http://www.w3.org/2000/svg">
<path d="M0.2 4.496C0.2 3.64266 0.498667 2.91733 1.096 2.32C1.69333 1.72267 2.41867 1.424 3.272 1.424C4.12533 1.424 4.85067 1.72267 5.448 2.32C6.04533 2.91733 6.344 3.64266 6.344 4.496V15.376C6.344 16.144 6.42933 16.9973 6.6 17.936C6.81333 18.832 7.176 19.664 7.688 20.432C8.24267 21.2 8.968 21.8613 9.864 22.416C10.8027 22.928 12.0187 23.184 13.512 23.184H28.36C27.6773 21.9893 27.1653 20.7307 26.824 19.408C26.4827 18.0427 26.312 16.6987 26.312 15.376V4.496C26.312 3.64266 26.6107 2.91733 27.208 2.32C27.8053 1.72267 28.5307 1.424 29.384 1.424C30.2373 1.424 30.9627 1.72267 31.56 2.32C32.1573 2.91733 32.456 3.64266 32.456 4.496V15.376C32.456 16.144 32.5413 16.976 32.712 17.872C32.9253 18.768 33.2667 19.6213 33.736 20.432C34.248 21.2 34.9307 21.8613 35.784 22.416C36.68 22.928 37.8107 23.184 39.176 23.184H45.256C46.7067 23.184 47.9013 22.928 48.84 22.416C49.7787 21.8613 50.504 21.2 51.016 20.432C51.5707 19.664 51.9333 18.832 52.104 17.936C52.3173 16.9973 52.424 16.144 52.424 15.376V4.496C52.424 3.64266 52.7227 2.91733 53.32 2.32C53.9173 1.72267 54.6427 1.424 55.496 1.424C56.3493 1.424 57.0747 1.72267 57.672 2.32C58.2693 2.91733 58.568 3.64266 58.568 4.496V15.376C58.568 16.9973 58.2907 18.64 57.736 20.304C57.224 21.9253 56.456 23.4187 55.432 24.784C54.408 26.1067 53.1707 27.1947 51.72 28.048C50.2693 28.9013 48.6267 29.328 46.792 29.328H11.336C9.58667 29.328 8.02933 28.9013 6.664 28.048C5.29867 27.1947 4.12533 26.1067 3.144 24.784C2.20533 23.4187 1.48 21.904 0.968 20.24C0.456 18.576 0.2 16.9547 0.2 15.376V4.496ZM75.165 28.176C74.525 28.944 73.7357 29.328 72.797 29.328C71.9437 29.328 71.2183 29.0293 70.621 28.432C70.0237 27.8347 69.725 27.1093 69.725 26.256C69.725 25.488 69.9383 24.8693 70.365 24.4L85.917 3.472C86.6423 2.49067 87.6023 1.70133 88.797 1.104C89.9917 0.463998 91.2717 0.143997 92.637 0.143997C93.917 0.143997 95.133 0.421331 96.285 0.975998C97.437 1.53067 98.3757 2.29867 99.101 3.28L114.653 24.08C114.909 24.3787 115.122 24.72 115.293 25.104C115.464 25.4453 115.549 25.8293 115.549 26.256C115.549 27.1093 115.25 27.8347 114.653 28.432C114.056 29.0293 113.33 29.328 112.477 29.328C111.453 29.328 110.642 28.9227 110.045 28.112L95.133 8.208C94.8343 7.86667 94.4503 7.504 93.981 7.12C93.5543 6.69333 93.1063 6.48 92.637 6.48C92.1677 6.48 91.6983 6.69333 91.229 7.12C90.8023 7.504 90.461 7.86667 90.205 8.208L75.165 28.176ZM169.527 18.448C170.679 19.1733 171.852 19.9627 173.047 20.816C174.242 21.6267 175.458 22.5227 176.695 23.504C177.164 23.8453 177.57 24.2507 177.911 24.72C178.252 25.1467 178.423 25.6587 178.423 26.256C178.423 27.1093 178.124 27.8347 177.527 28.432C176.93 29.0293 176.204 29.328 175.351 29.328C174.626 29.328 173.9 29.0293 173.175 28.432C171.426 27.152 169.634 25.9147 167.799 24.72C165.964 23.5253 164.044 22.4587 162.039 21.52C160.076 20.5813 158.028 19.8347 155.895 19.28C153.762 18.7253 151.543 18.448 149.239 18.448H136.503C135.948 18.5333 135.479 18.7893 135.095 19.216C134.711 19.6427 134.519 20.176 134.519 20.816V26.256C134.519 27.1093 134.199 27.8347 133.559 28.432C132.962 29.0293 132.258 29.328 131.447 29.328C130.594 29.328 129.868 29.0293 129.271 28.432C128.674 27.8347 128.375 27.1093 128.375 26.256V20.112C128.375 19.0453 128.567 18.0427 128.951 17.104C129.378 16.1227 129.932 15.2907 130.615 14.608C131.298 13.8827 132.108 13.328 133.047 12.944C133.986 12.5173 135.01 12.304 136.119 12.304H170.039C170.679 12.304 171.234 12.0907 171.703 11.664C172.215 11.1947 172.471 10.6187 172.471 9.936C172.471 9.296 172.215 8.74133 171.703 8.272C171.234 7.80267 170.679 7.568 170.039 7.568H131.447C130.594 7.568 129.868 7.26933 129.271 6.672C128.674 6.07467 128.375 5.34933 128.375 4.496C128.375 3.64266 128.674 2.91733 129.271 2.32C129.868 1.72267 130.594 1.424 131.447 1.424H169.783C170.978 1.424 172.087 1.65867 173.111 2.128C174.178 2.55466 175.095 3.152 175.863 3.92C176.674 4.688 177.292 5.584 177.719 6.608C178.188 7.632 178.423 8.74133 178.423 9.936C178.423 11.1307 178.188 12.24 177.719 13.264C177.292 14.288 176.674 15.184 175.863 15.952C175.095 16.72 174.178 17.3387 173.111 17.808C172.087 18.2347 170.978 18.448 169.783 18.448H169.527ZM191.212 4.496C191.212 3.64266 191.511 2.91733 192.108 2.32C192.706 1.72267 193.431 1.424 194.284 1.424H232.62C233.815 1.424 234.924 1.65867 235.948 2.128C237.015 2.55466 237.933 3.152 238.701 3.92C239.511 4.688 240.13 5.584 240.556 6.608C241.026 7.632 241.26 8.74133 241.26 9.936C241.26 11.1307 241.026 12.24 240.556 13.264C240.13 14.288 239.511 15.184 238.701 15.952C237.933 16.72 237.015 17.3387 235.948 17.808C234.924 18.2347 233.815 18.448 232.62 18.448H199.34C198.786 18.5333 198.316 18.7893 197.932 19.216C197.548 19.6427 197.356 20.176 197.356 20.816V26.256C197.356 27.1093 197.036 27.8347 196.396 28.432C195.799 29.0293 195.095 29.328 194.284 29.328C193.431 29.328 192.706 29.0293 192.108 28.432C191.511 27.8347 191.212 27.1093 191.212 26.256V20.112C191.212 19.0453 191.404 18.0427 191.788 17.104C192.172 16.1227 192.706 15.2907 193.388 14.608C194.114 13.8827 194.924 13.328 195.82 12.944C196.759 12.5173 197.783 12.304 198.892 12.304H232.876C233.516 12.304 234.071 12.0907 234.541 11.664C235.052 11.1947 235.308 10.6187 235.308 9.936C235.308 9.296 235.052 8.74133 234.541 8.272C234.071 7.80267 233.516 7.568 232.876 7.568H194.284C193.431 7.568 192.706 7.26933 192.108 6.672C191.511 6.07467 191.212 5.34933 191.212 4.496ZM282.21 12.304H301.154C302.007 12.304 302.733 12.6027 303.33 13.2C303.927 13.7973 304.226 14.5227 304.226 15.376C304.226 16.2293 303.927 16.9547 303.33 17.552C302.733 18.1493 302.007 18.448 301.154 18.448H282.21V26.256C282.21 27.1093 281.911 27.8347 281.314 28.432C280.717 29.0293 279.991 29.328 279.138 29.328C278.285 29.328 277.559 29.0293 276.962 28.432C276.365 27.8347 276.066 27.1093 276.066 26.256V18.448H256.866C256.098 18.3627 255.437 18.0427 254.882 17.488C254.327 16.8907 254.05 16.1867 254.05 15.376C254.05 14.5227 254.349 13.7973 254.946 13.2C255.543 12.56 256.269 12.2613 257.122 12.304H276.066V4.496C276.066 3.64266 276.365 2.91733 276.962 2.32C277.559 1.72267 278.285 1.424 279.138 1.424C279.991 1.424 280.717 1.72267 281.314 2.32C281.911 2.91733 282.21 3.64266 282.21 4.496V12.304Z" fill="black"/>
</svg>
